<?xml version="1.0" standalone="no"?>
<!DOCTYPE svg PUBLIC "-//W3C//DTD SVG 20010904//EN"
 "http://www.w3.org/TR/2001/REC-SVG-20010904/DTD/svg10.dtd">
<svg version="1.0" xmlns="http://www.w3.org/2000/svg"
 width="1560.000000pt" height="1560.000000pt" viewBox="0 0 1560.000000 1560.000000"
 preserveAspectRatio="xMidYMid meet">
<metadata>
Created by potrace 1.14, written by Peter Selinger 2001-2017
</metadata>
<g transform="translate(0.000000,1560.000000) scale(0.100000,-0.100000)"
fill="#000000" stroke="none">
<path d="M0 7800 l0 -7160 7800 0 7800 0 0 7160 0 7160 -7800 0 -7800 0 0
-7160z m12278 3666 l2 -836 -410 2 -410 3 0 833 c0 457 0 833 0 835 0 1 183 2
408 2 l407 -2 3 -837z m-8885 785 c14 -6 92 -64 174 -130 146 -119 519 -426
558 -459 20 -17 253 -209 323 -267 21 -16 120 -97 221 -180 101 -82 275 -224
386 -315 112 -91 263 -215 337 -275 73 -61 205 -169 293 -240 88 -71 245 -201
350 -288 104 -87 219 -183 255 -212 36 -30 73 -55 82 -55 9 0 126 90 260 201
134 110 306 252 383 314 158 126 347 282 510 418 60 51 179 148 265 216 85 69
184 150 220 181 36 31 97 81 135 111 76 58 201 161 443 363 85 71 176 145 202
165 26 20 158 128 294 239 136 112 262 208 279 213 43 12 1267 12 1267 0 0
-13 -49 -51 -65 -51 -7 0 -28 -15 -46 -32 -19 -18 -48 -44 -65 -58 -44 -35
-318 -263 -446 -370 -58 -49 -157 -131 -220 -181 -62 -51 -147 -122 -188 -159
-41 -36 -95 -82 -120 -101 -25 -19 -68 -53 -95 -76 -77 -64 -295 -243 -350
-288 -28 -21 -52 -42 -55 -45 -3 -3 -54 -46 -115 -95 -60 -49 -135 -110 -165
-136 -91 -77 -360 -300 -443 -367 -42 -34 -87 -71 -100 -81 -12 -11 -43 -36
-68 -57 -25 -22 -90 -75 -144 -119 -54 -44 -133 -109 -174 -145 -42 -36 -150
-126 -241 -200 -90 -74 -234 -193 -319 -263 -86 -71 -190 -157 -231 -190 -41
-34 -86 -72 -100 -83 -14 -12 -68 -57 -120 -100 -52 -43 -97 -81 -100 -85 -22
-27 -274 -219 -287 -219 -15 0 -95 62 -223 172 -30 26 -111 94 -180 150 -69
57 -253 209 -410 338 -157 129 -330 272 -385 318 -327 273 -558 465 -889 737
-87 72 -215 177 -285 235 -69 58 -235 195 -369 305 -247 203 -375 309 -569
470 -620 515 -872 721 -916 748 -15 9 -25 22 -22 27 8 13 1234 14 1268 1z
m-804 -2470 c36 -32 135 -114 219 -182 84 -68 175 -142 201 -164 26 -22 128
-106 227 -187 98 -80 261 -213 360 -295 100 -81 219 -180 265 -219 100 -83
354 -294 458 -379 41 -33 101 -83 135 -111 34 -28 147 -120 252 -205 105 -85
234 -190 286 -234 52 -44 117 -98 144 -120 26 -22 64 -54 84 -71 19 -17 105
-88 190 -158 222 -182 389 -319 500 -411 54 -44 139 -114 190 -155 52 -41 125
-102 163 -135 111 -96 100 -92 151 -54 68 52 234 186 306 249 36 31 149 125
252 208 103 84 193 158 200 165 7 7 81 68 163 134 220 177 272 220 351 287 39
34 113 96 165 138 52 42 166 136 254 209 195 160 618 507 694 570 127 103 651
535 716 589 73 61 391 322 505 415 36 29 101 84 145 123 44 39 84 67 88 63 5
-5 9 -1325 10 -2935 l2 -2926 -413 0 -412 0 0 2051 c0 1129 -2 2054 -5 2057
-2 3 -13 -1 -22 -9 -45 -34 -173 -140 -247 -204 -44 -39 -110 -92 -146 -119
-59 -45 -228 -183 -240 -196 -3 -3 -52 -44 -110 -90 -58 -46 -148 -120 -200
-165 -126 -107 -236 -197 -330 -270 -42 -33 -153 -123 -245 -200 -259 -215
-403 -334 -485 -399 -41 -33 -77 -62 -80 -65 -3 -4 -27 -24 -55 -46 -27 -21
-52 -42 -55 -45 -5 -6 -274 -226 -360 -295 -20 -16 -86 -70 -145 -120 -60 -49
-158 -132 -219 -182 -61 -51 -117 -93 -123 -93 -7 0 -48 31 -90 68 -43 38
-151 127 -239 198 -89 72 -186 151 -215 177 -83 71 -455 377 -644 530 -236
191 -227 183 -999 822 -87 72 -174 143 -194 160 -21 16 -98 80 -172 141 -326
269 -504 413 -507 410 -2 -2 -3 -928 -3 -2059 l0 -2056 -377 -3 c-208 -2 -395
-1 -415 1 l-38 3 0 2918 c0 1605 -3 2926 -6 2934 -11 30 44 0 115 -63z m9695
-793 c0 -10 -1 -1129 -2 -2488 l-2 -2470 -410 0 -410 0 0 2490 0 2490 413 -2
c385 -3 412 -4 411 -20z"/>
</g>
</svg>
